<?xml version="1.0" encoding="UTF-8" standalone="no"?>
<!DOCTYPE svg PUBLIC "-//W3C//DTD SVG 1.1//EN"
 "http://www.w3.org/Graphics/SVG/1.1/DTD/svg11.dtd">
<!-- Generated by graphviz version 2.40.1 (20161225.0304)
 -->
<!-- Title: G Pages: 1 -->
<svg width="264pt" height="649pt"
 viewBox="0.00 0.00 264.33 649.17" xmlns="http://www.w3.org/2000/svg" xmlns:xlink="http://www.w3.org/1999/xlink">
<g id="graph0" class="graph" transform="scale(1 1) rotate(0) translate(4 645.1724)">
<title>G</title>
<polygon fill="#ffffff" stroke="transparent" points="-4,4 -4,-645.1724 260.3265,-645.1724 260.3265,4 -4,4"/>
<!-- occ_pre -->
<!-- occ -->
<g id="node2" class="node">
<title>occ</title>
<polygon fill="#6495ed" stroke="#000000" points="95.5597,-570.4259 .1465,-570.4259 .1465,-475.0127 95.5597,-475.0127 95.5597,-570.4259"/>
<text text-anchor="middle" x="47.8531" y="-526.9193" font-family="Times,serif" font-size="14.00" fill="#ffffff">occlusion grid</text>
<text text-anchor="middle" x="47.8531" y="-510.1193" font-family="Times,serif" font-size="14.00" fill="#ffffff"> sampler</text>
</g>
<!-- occ_pre&#45;&gt;occ -->
<g id="edge1" class="edge">
<title>occ_pre&#45;&gt;occ</title>
<path fill="none" stroke="#000000" d="M47.8531,-639.9192C47.8531,-635.1 47.8531,-607.9322 47.8531,-580.9676"/>
<polygon fill="#000000" stroke="#000000" points="51.3532,-580.69 47.8531,-570.69 44.3532,-580.6901 51.3532,-580.69"/>
<text text-anchor="middle" x="88.0898" y="-609.5724" font-family="Times,serif" font-size="14.00" fill="#000000">origin,</text>
<text text-anchor="middle" x="88.0898" y="-592.7724" font-family="Times,serif" font-size="14.00" fill="#000000">view direction</text>
</g>
<!-- hash -->
<g id="node3" class="node">
<title>hash</title>
<polygon fill="#ff7f50" stroke="#000000" points="92.8179,-422.2992 2.8883,-422.2992 2.8883,-332.3696 92.8179,-332.3696 92.8179,-422.2992"/>
<text text-anchor="middle" x="47.8531" y="-373.1344" font-family="Times,serif" font-size="14.00" fill="#ffffff">hash encoder</text>
</g>
<!-- occ&#45;&gt;hash -->
<g id="edge2" class="edge">
<title>occ&#45;&gt;hash</title>
<path fill="none" stroke="#000000" d="M47.8531,-474.7119C47.8531,-461.2664 47.8531,-446.5424 47.8531,-432.7071"/>
<polygon fill="#000000" stroke="#000000" points="51.3532,-432.3363 47.8531,-422.3363 44.3532,-432.3364 51.3532,-432.3363"/>
<text text-anchor="middle" x="70.4113" y="-444.2662" font-family="Times,serif" font-size="14.00" fill="#000000">position</text>
</g>
<!-- mlp_base -->
<g id="node6" class="node">
<title>mlp_base</title>
<polygon fill="#2f4f4f" stroke="#000000" points="84.5069,-275.6096 11.1993,-275.6096 11.1993,-202.302 84.5069,-202.302 84.5069,-275.6096"/>
<text text-anchor="middle" x="47.8531" y="-234.7558" font-family="Times,serif" font-size="14.00" fill="#ffffff">MLP base</text>
</g>
<!-- hash&#45;&gt;mlp_base -->
<g id="edge5" class="edge">
<title>hash&#45;&gt;mlp_base</title>
<path fill="none" stroke="#000000" d="M47.8531,-332.4068C47.8531,-317.5309 47.8531,-300.9418 47.8531,-285.9172"/>
<polygon fill="#000000" stroke="#000000" points="51.3532,-285.8058 47.8531,-275.8059 44.3532,-285.8059 51.3532,-285.8058"/>
<text text-anchor="middle" x="95.4832" y="-302.0026" font-family="Times,serif" font-size="14.00" fill="#000000">encoded position</text>
</g>
<!-- sh_pre -->
<g id="node4" class="node">
<title>sh_pre</title>
<polygon fill="none" stroke="#000000" points="176.3531,-377.8344 175.3531,-377.8344 175.3531,-376.8344 176.3531,-376.8344 176.3531,-377.8344"/>
</g>
<!-- sh -->
<g id="node5" class="node">
<title>sh</title>
<polygon fill="#ff7f50" stroke="#000000" points="216.5473,-279.65 135.1589,-279.65 135.1589,-198.2616 216.5473,-198.2616 216.5473,-279.65"/>
<text text-anchor="middle" x="175.8531" y="-234.7558" font-family="Times,serif" font-size="14.00" fill="#ffffff">SH encoder</text>
</g>
<!-- sh_pre&#45;&gt;sh -->
<g id="edge3" class="edge">
<title>sh_pre&#45;&gt;sh</title>
<path fill="none" stroke="#000000" d="M175.8531,-376.4507C175.8531,-369.739 175.8531,-326.0776 175.8531,-289.7294"/>
<polygon fill="#000000" stroke="#000000" points="179.3532,-289.708 175.8531,-279.708 172.3532,-289.708 179.3532,-289.708"/>
<text text-anchor="middle" x="216.0898" y="-302.0026" font-family="Times,serif" font-size="14.00" fill="#000000">view direction</text>
</g>
<!-- mlp_head -->
<g id="node7" class="node">
<title>mlp_head</title>
<polygon fill="#2f4f4f" stroke="#000000" points="175.0627,-128.3641 100.6435,-128.3641 100.6435,-53.9449 175.0627,-53.9449 175.0627,-128.3641"/>
<text text-anchor="middle" x="137.8531" y="-86.9545" font-family="Times,serif" font-size="14.00" fill="#ffffff">MLP head</text>
</g>
<!-- sh&#45;&gt;mlp_head -->
<g id="edge4" class="edge">
<title>sh&#45;&gt;mlp_head</title>
<path fill="none" stroke="#000000" d="M165.3688,-198.1772C160.5985,-179.6227 154.9251,-157.556 149.9727,-138.2938"/>
<polygon fill="#000000" stroke="#000000" points="153.3371,-137.3234 147.4573,-128.5099 146.5576,-139.0665 153.3371,-137.3234"/>
<text text-anchor="middle" x="199.5309" y="-159.109" font-family="Times,serif" font-size="14.00" fill="#000000">encoded view</text>
</g>
<!-- mlp_base&#45;&gt;mlp_head -->
<g id="edge6" class="edge">
<title>mlp_base&#45;&gt;mlp_head</title>
<path fill="none" stroke="#000000" d="M70.3317,-202.0406C82.3132,-182.3641 97.1647,-157.9745 109.8858,-137.0834"/>
<polygon fill="#000000" stroke="#000000" points="112.9811,-138.7297 115.1927,-128.3683 107.0023,-135.089 112.9811,-138.7297"/>
<text text-anchor="middle" x="124.2886" y="-167.509" font-family="Times,serif" font-size="14.00" fill="#000000">geometry</text>
<text text-anchor="middle" x="124.2886" y="-150.709" font-family="Times,serif" font-size="14.00" fill="#000000">features</text>
</g>
<!-- mlp_base_suc -->
<g id="node8" class="node">
<title>mlp_base_suc</title>
<polygon fill="none" stroke="#000000" points="37.3531,-91.6545 36.3531,-91.6545 36.3531,-90.6545 37.3531,-90.6545 37.3531,-91.6545"/>
</g>
<!-- mlp_base&#45;&gt;mlp_base_suc -->
<g id="edge7" class="edge">
<title>mlp_base&#45;&gt;mlp_base_suc</title>
<path fill="none" stroke="#000000" d="M45.1057,-202.0406C42.6478,-169.0149 39.2017,-122.7115 37.6572,-101.9589"/>
<polygon fill="#000000" stroke="#000000" points="41.1426,-101.6315 36.91,-91.9188 34.1619,-102.1511 41.1426,-101.6315"/>
<text text-anchor="middle" x="58.0733" y="-159.109" font-family="Times,serif" font-size="14.00" fill="#000000">density</text>
</g>
<!-- mlp_head_suc -->
<g id="node9" class="node">
<title>mlp_head_suc</title>
<polygon fill="none" stroke="#000000" points="138.3531,-1 137.3531,-1 137.3531,0 138.3531,0 138.3531,-1"/>
</g>
<!-- mlp_head&#45;&gt;mlp_head_suc -->
<g id="edge8" class="edge">
<title>mlp_head&#45;&gt;mlp_head_suc</title>
<path fill="none" stroke="#000000" d="M137.8531,-53.7585C137.8531,-38.3767 137.8531,-21.7371 137.8531,-11.2254"/>
<polygon fill="#000000" stroke="#000000" points="141.3532,-11.2198 137.8531,-1.2198 134.3532,-11.2198 141.3532,-11.2198"/>
<text text-anchor="middle" x="161.5579" y="-23.2" font-family="Times,serif" font-size="14.00" fill="#000000">radiance</text>
</g>
</g>
</svg>
